<svg width="24" height="24" viewBox="0 0 24 24" fill="none" xmlns="http://www.w3.org/2000/svg">
<path d="M19.0001 9.00308C19.0015 7.67871 18.6262 6.38125 17.9179 5.26218C17.2096 4.14312 16.1976 3.24861 15.0001 2.68308C14.3704 2.37571 13.6949 2.17305 13.0001 2.08308C12.338 1.97231 11.6621 1.97231 11.0001 2.08308C10.3041 2.18308 9.62807 2.39608 9.00007 2.71308C7.79077 3.33356 6.77692 4.2768 6.07088 5.43822C5.36485 6.59965 4.99422 7.9339 5.00007 9.29308V10.0031H19.0001V9.00308Z" fill="#65D9A8"/>
<path d="M11 2.08301V6.00301C11 6.26822 10.8946 6.52258 10.7071 6.71011C10.5196 6.89765 10.2652 7.00301 10 7.00301C9.73478 7.00301 9.48043 6.89765 9.29289 6.71011C9.10536 6.52258 9 6.26822 9 6.00301V2.71301C9.62811 2.39599 10.3036 2.18321 11 2.08301ZM15 2.68301V6.00301C15 6.26822 14.8946 6.52258 14.7071 6.71011C14.5196 6.89765 14.2652 7.00301 14 7.00301C13.7348 7.00301 13.4804 6.89765 13.2929 6.71011C13.1054 6.52258 13 6.26822 13 6.00301V2.08301C13.695 2.17301 14.37 2.37601 15 2.68301Z" fill="#2BAD76"/>
<path d="M5 9.00293H19C19.5304 9.00293 20.0391 9.21364 20.4142 9.58872C20.7893 9.96379 21 10.4725 21 11.0029C21 11.5334 20.7893 12.0421 20.4142 12.4171C20.0391 12.7922 19.5304 13.0029 19 13.0029H5C4.46957 13.0029 3.96086 12.7922 3.58579 12.4171C3.21071 12.0421 3 11.5334 3 11.0029C3 10.4725 3.21071 9.96379 3.58579 9.58872C3.96086 9.21364 4.46957 9.00293 5 9.00293Z" fill="#2BAD76"/>
<path d="M5 13.0022C4.99944 13.9394 5.18713 14.8672 5.55192 15.7306C5.91671 16.5939 6.45119 17.3752 7.12363 18.028C7.79608 18.6809 8.59279 19.192 9.46652 19.5311C10.3403 19.8703 11.2732 20.0305 12.21 20.0022C14.014 19.9037 15.7143 19.1281 16.9712 17.8303C18.2282 16.5326 18.9491 14.8084 18.99 13.0022H5Z" fill="#B7EDD6"/>
<circle cx="17.5" cy="18.5" r="3.5" fill="#2BAD76"/>
<path d="M19.5 18H15.5C15.2239 18 15 18.2239 15 18.5C15 18.7761 15.2239 19 15.5 19H19.5C19.7761 19 20 18.7761 20 18.5C20 18.2239 19.7761 18 19.5 18Z" fill="#B7EDD6"/>
<path d="M18 20.5V16.5C18 16.2239 17.7761 16 17.5 16C17.2239 16 17 16.2239 17 16.5V20.5C17 20.7761 17.2239 21 17.5 21C17.7761 21 18 20.7761 18 20.5Z" fill="#B7EDD6"/>
</svg>
