<svg width="34" height="34" viewBox="0 0 34 34" fill="none" xmlns="http://www.w3.org/2000/svg">
<g clip-path="url(#clip0_35_5830)">
<circle cx="17" cy="17" r="17" fill="#B8BCC8"/>
<path d="M17 27.625C16.7465 27.6254 16.5013 27.5345 16.3094 27.3689C15.9896 27.0959 8.5 20.6093 8.5 14.875C8.5 12.6207 9.39553 10.4587 10.9896 8.86459C12.5837 7.27053 14.7457 6.375 17 6.375C19.2543 6.375 21.4163 7.27053 23.0104 8.86459C24.6045 10.4587 25.5 12.6207 25.5 14.875C25.5 20.6093 18.0104 27.0959 17.6906 27.3689C17.4987 27.5345 17.2535 27.6254 17 27.625Z" fill="#F7F7F7"/>
<path d="M19.125 16.4188H14.875C14.5932 16.4188 14.323 16.3069 14.1237 16.1076C13.9244 15.9084 13.8125 15.6381 13.8125 15.3563C13.8125 15.0745 13.9244 14.8043 14.1237 14.605C14.323 14.4058 14.5932 14.2938 14.875 14.2938H19.125C19.4068 14.2938 19.677 14.4058 19.8763 14.605C20.0756 14.8043 20.1875 15.0745 20.1875 15.3563C20.1875 15.6381 20.0756 15.9084 19.8763 16.1076C19.677 16.3069 19.4068 16.4188 19.125 16.4188Z" fill="#8C919F"/>
</g>
<rect x="1" y="1" width="32" height="32" rx="16" stroke="white" stroke-width="2"/>
<defs>
<clipPath id="clip0_35_5830">
<rect width="34" height="34" rx="17" fill="white"/>
</clipPath>
</defs>
</svg>
