<svg width="35" height="34" viewBox="0 0 35 34" fill="none" xmlns="http://www.w3.org/2000/svg">
<path d="M17.5 27.625C17.2465 27.6254 17.0013 27.5345 16.8094 27.3689C16.4896 27.0959 9 20.6093 9 14.875C9 12.6207 9.89553 10.4587 11.4896 8.86459C13.0837 7.27053 15.2457 6.375 17.5 6.375C19.7543 6.375 21.9163 7.27053 23.5104 8.86459C25.1045 10.4587 26 12.6207 26 14.875C26 20.6093 18.5104 27.0959 18.1906 27.3689C17.9987 27.5345 17.7535 27.6254 17.5 27.625Z" fill="#D2F7E3"/>
<path d="M17.5 19.125C16.6594 19.125 15.8377 18.8757 15.1388 18.4087C14.4399 17.9418 13.8952 17.278 13.5735 16.5014C13.2518 15.7248 13.1677 14.8703 13.3317 14.0459C13.4957 13.2214 13.9004 12.4642 14.4948 11.8698C15.0892 11.2754 15.8464 10.8707 16.6709 10.7067C17.4953 10.5427 18.3498 10.6268 19.1264 10.9485C19.903 11.2702 20.5668 11.8149 21.0337 12.5138C21.5007 13.2127 21.75 14.0344 21.75 14.875C21.7489 16.0018 21.3007 17.0822 20.504 17.879C19.7072 18.6757 18.6268 19.1239 17.5 19.125Z" fill="#1EAC5F"/>
</svg>
