<svg width="24" height="24" viewBox="0 0 24 24" fill="none" xmlns="http://www.w3.org/2000/svg">
<path d="M18.7072 15.7072L21.7072 12.7072C21.8947 12.5196 22 12.2653 22 12.0002C22 11.735 21.8947 11.4807 21.7072 11.2932L18.7072 8.29316C18.5186 8.111 18.266 8.01021 18.0038 8.01249C17.7416 8.01477 17.4908 8.11994 17.3054 8.30534C17.12 8.49075 17.0148 8.74156 17.0125 9.00376C17.0103 9.26596 17.1111 9.51856 17.2932 9.70716L18.5862 11.0002L7.00021 11.0002C6.735 11.0002 6.48064 11.1055 6.29311 11.2931C6.10557 11.4806 6.00021 11.7349 6.00021 12.0002C6.00021 12.2654 6.10557 12.5197 6.29311 12.7073C6.48064 12.8948 6.735 13.0002 7.00021 13.0002L18.5862 13.0002L17.2932 14.2932C17.1111 14.4818 17.0103 14.7344 17.0125 14.9966C17.0148 15.2588 17.12 15.5096 17.3054 15.695C17.4908 15.8804 17.7416 15.9856 18.0038 15.9878C18.266 15.9901 18.5186 15.8893 18.7072 15.7072Z" fill="#8C919F"/>
<path d="M15 18.0002L15 13.0002L7 13.0002C6.73478 13.0002 6.48043 12.8949 6.29289 12.7074C6.10536 12.5198 6 12.2655 6 12.0002C6 11.735 6.10536 11.4807 6.29289 11.2931C6.48043 11.1056 6.73478 11.0002 7 11.0002L15 11.0002L15 6.00024C14.9992 5.20484 14.6829 4.44224 14.1204 3.8798C13.558 3.31736 12.7954 3.00104 12 3.00024L5 3.00024C4.20459 3.00104 3.44199 3.31736 2.87956 3.8798C2.31712 4.44224 2.00079 5.20484 2 6.00024L2 18.0002C2.00079 18.7956 2.31712 19.5582 2.87956 20.1207C3.44199 20.6831 4.20459 20.9995 5 21.0002L12 21.0002C12.7954 20.9995 13.558 20.6831 14.1204 20.1207C14.6829 19.5583 14.9992 18.7956 15 18.0002Z" fill="#E5E7EC"/>
</svg>
