<svg width="24" height="24" viewBox="0 0 24 24" fill="none" xmlns="http://www.w3.org/2000/svg">
<path d="M15.8302 8.00011H6.1702C5.97233 8.00007 5.77892 7.94132 5.61445 7.83131C5.44997 7.7213 5.32184 7.56497 5.24625 7.38211C5.17066 7.19924 5.15102 6.99807 5.18982 6.80404C5.22862 6.61001 5.32411 6.43185 5.4642 6.29211L8.8842 2.88211C9.45363 2.33363 10.2138 2.02769 11.0044 2.02881C11.795 2.02993 12.5543 2.33802 13.1222 2.88811L16.5362 6.29211C16.6763 6.43185 16.7718 6.61001 16.8106 6.80404C16.8494 6.99807 16.8297 7.19924 16.7541 7.38211C16.6786 7.56497 16.5504 7.7213 16.386 7.83131C16.2215 7.94132 16.0281 8.00007 15.8302 8.00011Z" fill="#B7EDD6"/>
<path d="M15.9621 22.0049C15.4715 22.003 14.989 21.8786 14.5587 21.6428C14.1284 21.407 13.7638 21.0674 13.4981 20.6549L9.22813 14.2449C9.15525 14.1356 9.1046 14.0131 9.07908 13.8843C9.05355 13.7554 9.05365 13.6228 9.07937 13.494C9.13132 13.2339 9.28447 13.0051 9.50513 12.8579C9.72579 12.7107 9.99589 12.6572 10.256 12.7092C10.5161 12.7611 10.7449 12.9142 10.8921 13.1349L15.1621 19.5449C15.289 19.7365 15.4779 19.8786 15.6971 19.9473C15.9163 20.0161 16.1526 20.0074 16.3661 19.9226C16.5797 19.8378 16.7575 19.6821 16.8699 19.4817C16.9822 19.2813 17.0222 19.0483 16.9831 18.8219L16.0231 13.1159C16.0144 13.061 16.0101 13.0055 16.0101 12.9499C16.0078 12.6934 16.1042 12.4458 16.2793 12.2583C16.4544 12.0708 16.6949 11.9578 16.951 11.9427C17.2071 11.9275 17.4592 12.0114 17.6552 12.1769C17.8513 12.3424 17.9762 12.5769 18.0041 12.8319L18.9561 18.4939C19.0801 19.1737 18.9617 19.8754 18.6217 20.4769C18.2817 21.0784 17.7415 21.5416 17.0951 21.7859C16.7346 21.9294 16.3502 22.0037 15.9621 22.0049ZM5.88913 18.2099C5.71841 18.2099 5.55054 18.1662 5.4015 18.0829C5.25245 17.9997 5.12721 17.8797 5.03768 17.7343C4.94816 17.5889 4.89734 17.4231 4.89007 17.2525C4.88279 17.0819 4.91931 16.9124 4.99613 16.7599L6.63613 13.5009C6.75521 13.2638 6.96361 13.0837 7.21547 13.0003C7.46733 12.9168 7.74203 12.9368 7.97913 13.0559C8.21624 13.175 8.39632 13.3834 8.47978 13.6352C8.56323 13.8871 8.54321 14.1618 8.42413 14.3989L6.78413 17.6589C6.70079 17.8248 6.57292 17.9642 6.41486 18.0615C6.25679 18.1588 6.07475 18.2102 5.88913 18.2099Z" fill="#65D9A8"/>
<path d="M17.0008 14C16.9346 14.0001 16.8686 13.9934 16.8038 13.98C16.544 13.9279 16.3154 13.7747 16.1684 13.5542C16.0214 13.3337 15.968 13.0639 16.0198 12.804L18.0198 2.804C18.0651 2.57739 18.1875 2.37346 18.3661 2.22689C18.5448 2.08031 18.7687 2.00014 18.9998 2H20.9998C21.265 2 21.5194 2.10536 21.7069 2.29289C21.8944 2.48043 21.9998 2.73478 21.9998 3C21.9998 3.26522 21.8944 3.51957 21.7069 3.70711C21.5194 3.89464 21.265 4 20.9998 4H19.8198L17.9798 13.196C17.9345 13.4224 17.8123 13.6262 17.6338 13.7728C17.4554 13.9194 17.2317 13.9996 17.0008 14Z" fill="#65D9A8"/>
<path d="M7 15C6.82374 14.9999 6.65062 14.9533 6.49819 14.8648C6.34576 14.7763 6.21943 14.6491 6.132 14.496L2.132 7.496C2.04514 7.34394 1.99974 7.17174 2.00033 6.99662C2.00092 6.8215 2.04749 6.64961 2.13537 6.49814C2.22326 6.34667 2.34938 6.22094 2.50111 6.13352C2.65285 6.0461 2.82488 6.00006 3 6H18.2C18.3479 6.00009 18.4939 6.03298 18.6276 6.0963C18.7612 6.15963 18.8792 6.25181 18.9729 6.3662C19.0666 6.48059 19.1338 6.61435 19.1696 6.75784C19.2054 6.90133 19.209 7.05098 19.18 7.196L17.98 13.196C17.9381 13.4061 17.8299 13.5971 17.6713 13.7411C17.5127 13.8851 17.3121 13.9745 17.099 13.996L7.101 14.996C7.06741 14.9988 7.03371 15.0001 7 15ZM5 22C4.40666 22 3.82664 21.8241 3.33329 21.4944C2.83994 21.1648 2.45543 20.6962 2.22836 20.1481C2.0013 19.5999 1.94189 18.9967 2.05765 18.4147C2.1734 17.8328 2.45912 17.2982 2.87868 16.8787C3.29824 16.4591 3.83279 16.1734 4.41473 16.0576C4.99667 15.9419 5.59987 16.0013 6.14805 16.2284C6.69623 16.4554 7.16477 16.8399 7.49441 17.3333C7.82405 17.8266 8 18.4067 8 19C7.99921 19.7954 7.68288 20.558 7.12044 21.1204C6.55801 21.6829 5.79541 21.9992 5 22Z" fill="#2BAD76"/>
</svg>
